# xmcd
#
# Track frame offsets: 
#        150
#        18775
#        38302
#        48845
#        62977
#        78945
#        94075
#        110450
#        124935
#        142060
#        161937
#        190150
#        214152
#        239350
#        262597
#        284932
#        300392
#
# Disc length: 4382 seconds
#
# Revision: 7
# Processed by: cddbd v1.5.2PL0 Copyright (c) Steve Scherf et al.
# Submitted via: ExactAudioCopyFreeDBPlugin 1.0
#
DISCID=e9111c11
DTITLE=Luiz Melodia - Acustico Ao Vivo
DYEAR=1999
DGENRE=MPB
TTITLE0=Fadas
TTITLE1=Diz Que Fui Por Ai
TTITLE2=Amor
TTITLE3=Maura
TTITLE4=Dores De Amores
TTITLE5=Cruel
TTITLE6=Memorias Modestas
TTITLE7=Surra De Chicote
TTITLE8=So
TTITLE9=Quase Fui Lhe Procurar
TTITLE10=Perola Negra
TTITLE11=Cara a Cara
TTITLE12=Cuidando De Voce
TTITLE13=Magrelinha
TTITLE14=Codinome Beija-Flor
TTITLE15=Estacio Holly Estacio
TTITLE16=Questao De Posse
EXTD=
EXTT0=
EXTT1=
EXTT2=
EXTT3=
EXTT4=
EXTT5=
EXTT6=
EXTT7=
EXTT8=
EXTT9=
EXTT10=
EXTT11=
EXTT12=
EXTT13=
EXTT14=
EXTT15=
EXTT16=
PLAYORDER=
